Coordinates
version=1
nRows=6
nColumns=36
inDegrees=yes

Units are S.I. units (second, meters, Newtons, ...)
If the header above contains a line with 'inDegrees', this indicates whether rotational values are in degrees (yes) or radians (no).

endheader
time	pelvis_tilt	pelvis_list	pelvis_rotation	pelvis_tx	pelvis_ty	pelvis_tz	hip_flexion_r	hip_adduction_r	hip_rotation_r	knee_angle_r	knee_angle_r_beta	ankle_angle_r	subtalar_angle_r	mtp_angle_r	hip_flexion_l	hip_adduction_l	hip_rotation_l	knee_angle_l	knee_angle_l_beta	ankle_angle_l	subtalar_angle_l	mtp_angle_l	lumbar_extension	lumbar_bending	lumbar_rotation	arm_flex_r	arm_add_r	arm_rot_r	elbow_flex_r	pro_sup_r	arm_flex_l	arm_add_l	arm_rot_l	elbow_flex_l	pro_sup_l
      3.76250000	    -11.65623045	      1.30349464	      0.94925860	      0.27182603	      0.73477307	     -0.05473102	     61.44710842	     -6.74618031	      5.98211140	     84.72785694	      1.47878007	     18.68786128	    -17.01834028	     -7.49999987	     59.47013408	     -6.93927701	     -0.10189540	     83.07854999	      1.44999424	     12.36878831	    -29.26891073	     -7.49999987	    -40.56119548	      0.97107318	      3.71377985	     49.73195960	    -17.94594673	     21.39361135	     59.33440554	     77.56243915	     53.32964577	    -18.47313032	     38.45814623	     52.35991842	     65.69229042
      3.76666670	    -11.62134850	      1.12612153	      0.86770050	      0.27705260	      0.73913506	     -0.05104251	     60.33878389	     -6.16030734	      5.71427910	     83.76302437	      1.46194057	     19.13845022	    -17.18776578	     -7.49999987	     58.47751015	     -7.45052649	     -0.05239894	     82.05042385	      1.43205005	     12.64222804	    -28.72323723	     -7.49999987	    -40.19573130	      0.88995156	      3.56773444	     47.30815531	    -17.91849918	     21.04621697	     59.78015005	     76.55977039	     51.29114475	    -19.63338382	     38.07239145	     52.63360707	     65.29723479
      3.77083330	    -11.47822637	      1.06650869	      0.74722371	      0.27841662	      0.74348587	     -0.05621841	     59.29198015	     -6.02071265	      5.58239836	     82.88921073	      1.44668964	     19.06041809	    -17.25430923	     -7.49999987	     57.44914872	     -7.51367438	     -0.03447049	     80.96469984	      1.41310059	     12.67501946	    -28.67433077	     -7.49999987	    -39.68129926	      0.98410872	      3.48380779	     45.37313511	    -18.19585764	     21.18168749	     59.22285645	     76.61929773	     49.57099579	    -20.38175726	     38.49436779	     51.93422593	     65.31779616
      3.77500000	    -11.05284206	      0.97113164	      0.54063834	      0.27775932	      0.74898758	     -0.05740762	     58.02748804	     -5.81736398	      5.62530785	     81.81476425	      1.42793701	     18.83789847	    -17.79641198	     -7.49999987	     56.14395161	     -7.69314321	     -0.15739838	     79.87788585	      1.39413211	     12.95360383	    -28.41593055	     -7.49999987	    -39.38653191	      1.10131178	      3.37932421	     44.06257336	    -17.64077752	     20.54196861	     57.29608002	     77.06978476	     48.54769398	    -20.67402171	     39.68290205	     49.75740282	     65.33673367
      3.77916670	    -10.79455655	      0.83119450	      0.40228140	      0.28181138	      0.75873357	     -0.05510935	     56.54502907	     -5.59253925	      5.51927718	     80.23382046	      1.40034434	     18.56193204	    -17.87456235	     -7.49999987	     54.68462552	     -7.97329440	     -0.38539413	     78.36556915	      1.36773720	     12.85207955	    -27.95546968	     -7.49999987	    -39.09874219	      1.15188912	      3.53370993	     42.40249381	    -17.86126190	     20.42400069	     56.17242492	     77.34380149	     47.17449391	    -21.08441052	     40.36534673	     48.81101160	     65.25374994
      3.78333330	    -10.48289466	      0.68125522	      0.25148954	      0.28606354	      0.76601870	     -0.05936243	     54.97385231	     -5.61163547	      5.38940287	     78.60237837	      1.37187030	     18.18389129	    -17.63448512	     -7.49999987	     53.04248899	     -7.90352828	     -0.42089083	     76.63741942	      1.33757530	     13.13831066	    -27.56800550	     -7.49999987	    -38.78508002	      1.30359036	      3.61126704	     40.69760833	    -18.00601667	     20.29017609	     54.84924665	     77.65673655	     45.55003338	    -21.16013439	     40.73406736	     47.65087757	     65.03404655
